<svg width="1400" height="910" xmlns="http://www.w3.org/2000/svg">
  <!-- 背景 -->
  <rect width="1400" height="910" fill="#f5f5f5"/>
  
  <!-- ヘッダーバー -->
  <rect width="1400" height="60" fill="#0070d2"/>
  <image href="data:image/svg+xml,%3Csvg xmlns='http://www.w3.org/2000/svg' viewBox='0 0 40 40'%3E%3Cpath fill='%23ffffff' d='M20 5 L35 15 L35 25 L20 35 L5 25 L5 15 Z'/%3E%3C/svg%3E" x="10" y="10" width="40" height="40"/>
  <text x="60" y="38" font-family="Arial, sans-serif" font-size="20" fill="white" font-weight="bold">TeamSpirit</text>
  
  <!-- ナビゲーション -->
  <text x="140" y="38" font-family="Arial, sans-serif" font-size="14" fill="white">ホーム</text>
  <text x="220" y="38" font-family="Arial, sans-serif" font-size="14" fill="white">勤務表</text>
  <text x="300" y="38" font-family="Arial, sans-serif" font-size="14" fill="white">工数実績</text>
  <text x="390" y="38" font-family="Arial, sans-serif" font-size="14" fill="white">レポート</text>
  
  <!-- 検索ボックス -->
  <rect x="1100" y="18" width="250" height="30" rx="15" fill="white"/>
  <text x="1120" y="37" font-family="Arial, sans-serif" font-size="12" fill="#999">検索...</text>
  
  <!-- メインコンテナ -->
  <rect x="10" y="65" width="1380" height="840" fill="white" stroke="#ddd" stroke-width="1"/>
  
  <!-- ヘッダー部分 -->
  <!-- 月選択 -->
  <rect x="20" y="75" width="100" height="20" fill="white" stroke="#999"/>
  <text x="70" y="89" font-family="Arial, sans-serif" font-size="11" fill="#333" text-anchor="middle">2025年11月</text>
  <polygon points="105,83 110,78 110,88" fill="#333"/>
  
  <!-- ナビゲーションリンク -->
  <text x="135" y="89" font-family="Arial, sans-serif" font-size="11" fill="#0070d2" text-decoration="underline">&lt;&lt;前月</text>
  <text x="195" y="89" font-family="Arial, sans-serif" font-size="11" fill="#0070d2" text-decoration="underline">今月</text>
  <text x="235" y="89" font-family="Arial, sans-serif" font-size="11" fill="#0070d2" text-decoration="underline">次月&gt;&gt;</text>
  
  <!-- 右上ボタン群 -->
  <text x="1050" y="89" font-family="Arial, sans-serif" font-size="11" fill="#0070d2" text-decoration="underline">全照会</text>
  <text x="1110" y="89" font-family="Arial, sans-serif" font-size="11" fill="#0070d2" text-decoration="underline">月次サマリー</text>
  <text x="1200" y="89" font-family="Arial, sans-serif" font-size="11" fill="#666">ステータス</text>
  <text x="1280" y="89" font-family="Arial, sans-serif" font-size="11" fill="#0070d2" text-decoration="underline">承認履歴</text>
  
  <rect x="1320" y="72" width="60" height="22" rx="3" fill="#0096ff"/>
  <text x="1350" y="87" font-family="Arial, sans-serif" font-size="11" fill="white" font-weight="bold" text-anchor="middle">承認申請</text>
  
  <!-- カレンダーヘッダー -->
  <rect x="15" y="105" width="1370" height="25" fill="#e8f4ff"/>
  <text x="25" y="121" font-family="Arial, sans-serif" font-size="10" fill="#333">日付</text>
  <text x="75" y="121" font-family="Arial, sans-serif" font-size="10" fill="#333">勤務</text>
  <text x="75" y="128" font-family="Arial, sans-serif" font-size="10" fill="#333">状況</text>
  <text x="110" y="121" font-family="Arial, sans-serif" font-size="10" fill="#333">出社</text>
  <text x="155" y="121" font-family="Arial, sans-serif" font-size="10" fill="#333">退社</text>
  <text x="200" y="121" font-family="Arial, sans-serif" font-size="10" fill="#333">勤務場所</text>
  <text x="270" y="121" font-family="Arial, sans-serif" font-size="10" fill="#333">工数</text>
  <text x="320" y="121" font-family="Arial, sans-serif" font-size="9" fill="#333">0 1 2 3 4 5 6 7 8 9 10 11 12 13 14 15 16 17 18 19 20 21 22 23 24 25 26 27 28 29 30 31 32 33 34 35 36 37 38 39 40 41 42 43 44 45 46 47 48</text>
  <text x="1350" y="121" font-family="Arial, sans-serif" font-size="10" fill="#333" text-anchor="end">備考</text>
  
  <!-- データ行 -->
  <!-- 11/1 土 -->
  <rect x="15" y="130" width="1370" height="20" fill="#fff" stroke="#e0e0e0" stroke-width="0.5"/>
  <text x="25" y="143" font-family="Arial, sans-serif" font-size="10" fill="#333">11/1 土</text>
  
  <!-- 11/2 日 -->
  <rect x="15" y="150" width="1370" height="20" fill="#ffe8d9" stroke="#e0e0e0" stroke-width="0.5"/>
  <circle cx="20" cy="160" r="4" fill="white" stroke="#ccc"/>
  <text x="25" y="163" font-family="Arial, sans-serif" font-size="10" fill="#333">2 日</text>
  
  <!-- 11/3 月 -->
  <rect x="15" y="170" width="1370" height="20" fill="#ffe8d9" stroke="#e0e0e0" stroke-width="0.5"/>
  <circle cx="20" cy="180" r="4" fill="white" stroke="#ccc"/>
  <text x="25" y="183" font-family="Arial, sans-serif" font-size="10" fill="#333">3 月</text>
  
  <!-- 11/4 火: 8:48-17:48 (8時間) -->
  <rect x="15" y="190" width="1370" height="20" fill="#e8f5ff" stroke="#e0e0e0" stroke-width="0.5"/>
  <circle cx="20" cy="200" r="4" fill="white" stroke="#ccc"/>
  <path d="M 18,200 L 20,202 L 23,197" stroke="#0096ff" fill="none" stroke-width="1.5"/>
  <text x="25" y="203" font-family="Arial, sans-serif" font-size="10" fill="#333">4 火</text>
  <circle cx="80" cy="200" r="6" fill="#4a9eff"/>
  <circle cx="100" cy="200" r="6" fill="#4a9eff"/>
  <path d="M 98,200 L 100,202 L 103,197" stroke="white" fill="none" stroke-width="1.2"/>
  <text x="115" y="203" font-family="Arial, sans-serif" font-size="10" fill="#333">8:48</text>
  <text x="160" y="203" font-family="Arial, sans-serif" font-size="10" fill="#333">17:48</text>
  <text x="205" y="203" font-family="Arial, sans-serif" font-size="10" fill="#333">在宅</text>
  <text x="275" y="203" font-family="Arial, sans-serif" font-size="10" fill="#0070d2" text-decoration="underline">8:00</text>
  <!-- 8:48 = 8.8h, 17:48 = 17.8h, 0時=320, 1h=21.875px -->
  <!-- 開始: 320 + 8.8*21.875 = 512.5, 終了: 320 + 17.8*21.875 = 709.375 -->
  <rect x="512.5" y="193" width="98.4" height="13" fill="#4a9eff" rx="1"/>
  <line x1="611" y1="193" x2="611" y2="206" stroke="white" stroke-width="1.5"/>
  <rect x="611" y="193" width="98.4" height="13" fill="#4a9eff" rx="1"/>
  <circle cx="1360" cy="200" r="5" fill="#ccc"/>
  
  <!-- 11/5 水: 8:50-19:03 (9h13m) -->
  <rect x="15" y="210" width="1370" height="20" fill="#e8f5ff" stroke="#e0e0e0" stroke-width="0.5"/>
  <circle cx="20" cy="220" r="4" fill="white" stroke="#ccc"/>
  <path d="M 18,220 L 20,222 L 23,217" stroke="#0096ff" fill="none" stroke-width="1.5"/>
  <text x="25" y="223" font-family="Arial, sans-serif" font-size="10" fill="#333">5 水</text>
  <circle cx="80" cy="220" r="6" fill="#4a9eff"/>
  <circle cx="100" cy="220" r="6" fill="#4a9eff"/>
  <path d="M 98,220 L 100,222 L 103,217" stroke="white" fill="none" stroke-width="1.2"/>
  <text x="115" y="223" font-family="Arial, sans-serif" font-size="10" fill="#333">8:50</text>
  <text x="160" y="223" font-family="Arial, sans-serif" font-size="10" fill="#333">19:03</text>
  <text x="205" y="223" font-family="Arial, sans-serif" font-size="10" fill="#333">渋谷</text>
  <text x="275" y="223" font-family="Arial, sans-serif" font-size="10" fill="#0070d2" text-decoration="underline">9:13</text>
  <!-- 8:50 = 8.833h, 19:03 = 19.05h -->
  <!-- 開始: 320 + 8.833*21.875 = 513.2, 終了: 320 + 19.05*21.875 = 736.7 -->
  <rect x="513.2" y="213" width="111.8" height="13" fill="#4a9eff" rx="1"/>
  <line x1="625" y1="213" x2="625" y2="226" stroke="white" stroke-width="1.5"/>
  <rect x="625" y="213" width="111.7" height="13" fill="#4a9eff" rx="1"/>
  <circle cx="1360" cy="220" r="5" fill="#ccc"/>
  
  <!-- 11/6 木: 8:47-17:52 (8h5m) -->
  <rect x="15" y="230" width="1370" height="20" fill="#e8f5ff" stroke="#e0e0e0" stroke-width="0.5"/>
  <circle cx="20" cy="240" r="4" fill="white" stroke="#ccc"/>
  <path d="M 18,240 L 20,242 L 23,237" stroke="#0096ff" fill="none" stroke-width="1.5"/>
  <text x="25" y="243" font-family="Arial, sans-serif" font-size="10" fill="#333">6 木</text>
  <circle cx="80" cy="240" r="6" fill="#4a9eff"/>
  <circle cx="100" cy="240" r="6" fill="#4a9eff"/>
  <path d="M 98,240 L 100,242 L 103,237" stroke="white" fill="none" stroke-width="1.2"/>
  <text x="115" y="243" font-family="Arial, sans-serif" font-size="10" fill="#333">8:47</text>
  <text x="160" y="243" font-family="Arial, sans-serif" font-size="10" fill="#333">17:52</text>
  <text x="205" y="243" font-family="Arial, sans-serif" font-size="10" fill="#333">在宅</text>
  <text x="275" y="243" font-family="Arial, sans-serif" font-size="10" fill="#0070d2" text-decoration="underline">8:05</text>
  <!-- 8:47 = 8.783h, 17:52 = 17.867h -->
  <!-- 開始: 320 + 8.783*21.875 = 512.1, 終了: 320 + 17.867*21.875 = 710.8 -->
  <rect x="512.1" y="233" width="99.4" height="13" fill="#4a9eff" rx="1"/>
  <line x1="611.5" y1="233" x2="611.5" y2="246" stroke="white" stroke-width="1.5"/>
  <rect x="611.5" y="233" width="99.3" height="13" fill="#4a9eff" rx="1"/>
  <circle cx="1360" cy="240" r="5" fill="#ccc"/>
  
  <!-- 11/7 金: 8:46-17:47 (8h1m) -->
  <rect x="15" y="250" width="1370" height="20" fill="#e8f5ff" stroke="#e0e0e0" stroke-width="0.5"/>
  <circle cx="20" cy="260" r="4" fill="white" stroke="#ccc"/>
  <path d="M 18,260 L 20,262 L 23,257" stroke="#0096ff" fill="none" stroke-width="1.5"/>
  <text x="25" y="263" font-family="Arial, sans-serif" font-size="10" fill="#333">7 金</text>
  <circle cx="80" cy="260" r="6" fill="#4a9eff"/>
  <circle cx="100" cy="260" r="6" fill="#4a9eff"/>
  <path d="M 98,260 L 100,262 L 103,257" stroke="white" fill="none" stroke-width="1.2"/>
  <text x="115" y="263" font-family="Arial, sans-serif" font-size="10" fill="#333">8:46</text>
  <text x="160" y="263" font-family="Arial, sans-serif" font-size="10" fill="#333">17:47</text>
  <text x="205" y="263" font-family="Arial, sans-serif" font-size="10" fill="#333">在宅</text>
  <text x="275" y="263" font-family="Arial, sans-serif" font-size="10" fill="#0070d2" text-decoration="underline">8:01</text>
  <!-- 8:46 = 8.767h, 17:47 = 17.783h -->
  <!-- 開始: 320 + 8.767*21.875 = 511.8, 終了: 320 + 17.783*21.875 = 709 -->
  <rect x="511.8" y="253" width="98.6" height="13" fill="#4a9eff" rx="1"/>
  <line x1="610.4" y1="253" x2="610.4" y2="266" stroke="white" stroke-width="1.5"/>
  <rect x="610.4" y="253" width="98.6" height="13" fill="#4a9eff" rx="1"/>
  <circle cx="1360" cy="260" r="5" fill="#ccc"/>
  
  <!-- 11/8 土 -->
  <rect x="15" y="270" width="1370" height="20" fill="#ffe8d9" stroke="#e0e0e0" stroke-width="0.5"/>
  <circle cx="20" cy="280" r="4" fill="white" stroke="#ccc"/>
  <text x="25" y="283" font-family="Arial, sans-serif" font-size="10" fill="#333">8 土</text>
  
  <!-- 11/9 日 -->
  <rect x="15" y="290" width="1370" height="20" fill="#ffe8d9" stroke="#e0e0e0" stroke-width="0.5"/>
  <circle cx="20" cy="300" r="4" fill="white" stroke="#ccc"/>
  <text x="25" y="303" font-family="Arial, sans-serif" font-size="10" fill="#333">9 日</text>
  
  <!-- 11/10 月: 8:46-17:31 (7h45m) -->
  <rect x="15" y="310" width="1370" height="20" fill="#e8f5ff" stroke="#e0e0e0" stroke-width="0.5"/>
  <circle cx="20" cy="320" r="4" fill="white" stroke="#ccc"/>
  <path d="M 18,320 L 20,322 L 23,317" stroke="#0096ff" fill="none" stroke-width="1.5"/>
  <text x="25" y="323" font-family="Arial, sans-serif" font-size="10" fill="#333">10 月</text>
  <circle cx="80" cy="320" r="6" fill="#4a9eff"/>
  <circle cx="100" cy="320" r="6" fill="#4a9eff"/>
  <path d="M 98,320 L 100,322 L 103,317" stroke="white" fill="none" stroke-width="1.2"/>
  <text x="115" y="323" font-family="Arial, sans-serif" font-size="10" fill="#333">8:46</text>
  <text x="160" y="323" font-family="Arial, sans-serif" font-size="10" fill="#333">17:31</text>
  <text x="205" y="323" font-family="Arial, sans-serif" font-size="10" fill="#333">在宅</text>
  <text x="275" y="323" font-family="Arial, sans-serif" font-size="10" fill="#0070d2" text-decoration="underline">7:45</text>
  <!-- 8:46 = 8.767h, 17:31 = 17.517h -->
  <!-- 開始: 320 + 8.767*21.875 = 511.8, 終了: 320 + 17.517*21.875 = 703.2 -->
  <rect x="511.8" y="313" width="95.7" height="13" fill="#4a9eff" rx="1"/>
  <line x1="607.5" y1="313" x2="607.5" y2="326" stroke="white" stroke-width="1.5"/>
  <rect x="607.5" y="313" width="95.7" height="13" fill="#4a9eff" rx="1"/>
  <circle cx="1360" cy="320" r="5" fill="#ccc"/>
  
  <!-- 11/11 火: 8:50-17:40 (7h50m) -->
  <rect x="15" y="330" width="1370" height="20" fill="#e8f5ff" stroke="#e0e0e0" stroke-width="0.5"/>
  <circle cx="20" cy="340" r="4" fill="white" stroke="#ccc"/>
  <path d="M 18,340 L 20,342 L 23,337" stroke="#0096ff" fill="none" stroke-width="1.5"/>
  <text x="25" y="343" font-family="Arial, sans-serif" font-size="10" fill="#333">11 火</text>
  <circle cx="80" cy="340" r="6" fill="#4a9eff"/>
  <circle cx="100" cy="340" r="6" fill="#4a9eff"/>
  <path d="M 98,340 L 100,342 L 103,337" stroke="white" fill="none" stroke-width="1.2"/>
  <text x="115" y="343" font-family="Arial, sans-serif" font-size="10" fill="#333">8:50</text>
  <text x="160" y="343" font-family="Arial, sans-serif" font-size="10" fill="#333">17:40</text>
  <text x="205" y="343" font-family="Arial, sans-serif" font-size="10" fill="#333">在宅</text>
  <text x="275" y="343" font-family="Arial, sans-serif" font-size="10" fill="#0070d2" text-decoration="underline">7:50</text>
  <!-- 8:50 = 8.833h, 17:40 = 17.667h -->
  <!-- 開始: 320 + 8.833*21.875 = 513.2, 終了: 320 + 17.667*21.875 = 706.5 -->
  <rect x="513.2" y="333" width="96.7" height="13" fill="#4a9eff" rx="1"/>
  <line x1="609.9" y1="333" x2="609.9" y2="346" stroke="white" stroke-width="1.5"/>
  <rect x="609.9" y="333" width="96.6" height="13" fill="#4a9eff" rx="1"/>
  <circle cx="1360" cy="340" r="5" fill="#ccc"/>
  
  <!-- 11/12 水: 8:42-18:52 (9h10m) -->
  <rect x="15" y="350" width="1370" height="20" fill="#e8f5ff" stroke="#e0e0e0" stroke-width="0.5"/>
  <circle cx="20" cy="360" r="4" fill="white" stroke="#ccc"/>
  <path d="M 18,360 L 20,362 L 23,357" stroke="#0096ff" fill="none" stroke-width="1.5"/>
  <text x="25" y="363" font-family="Arial, sans-serif" font-size="10" fill="#333">12 水</text>
  <circle cx="80" cy="360" r="6" fill="#4a9eff"/>
  <circle cx="100" cy="360" r="6" fill="#4a9eff"/>
  <path d="M 98,360 L 100,362 L 103,357" stroke="white" fill="none" stroke-width="1.2"/>
  <text x="115" y="363" font-family="Arial, sans-serif" font-size="10" fill="#333">8:42</text>
  <text x="160" y="363" font-family="Arial, sans-serif" font-size="10" fill="#333">18:52</text>
  <text x="205" y="363" font-family="Arial, sans-serif" font-size="10" fill="#333">渋谷</text>
  <text x="275" y="363" font-family="Arial, sans-serif" font-size="10" fill="#0070d2" text-decoration="underline">9:10</text>
  <!-- 8:42 = 8.7h, 18:52 = 18.867h -->
  <!-- 開始: 320 + 8.7*21.875 = 510.3, 終了: 320 + 18.867*21.875 = 732.7 -->
  <rect x="510.3" y="353" width="111.2" height="13" fill="#4a9eff" rx="1"/>
  <line x1="621.5" y1="353" x2="621.5" y2="366" stroke="white" stroke-width="1.5"/>
  <rect x="621.5" y="353" width="111.2" height="13" fill="#4a9eff" rx="1"/>
  <circle cx="1360" cy="360" r="5" fill="#ccc"/>
  
  <!-- 11/13 木: 8:51-17:36 (7h45m) -->
  <rect x="15" y="370" width="1370" height="20" fill="#e8f5ff" stroke="#e0e0e0" stroke-width="0.5"/>
  <circle cx="20" cy="380" r="4" fill="white" stroke="#ccc"/>
  <path d="M 18,380 L 20,382 L 23,377" stroke="#0096ff" fill="none" stroke-width="1.5"/>
  <text x="25" y="383" font-family="Arial, sans-serif" font-size="10" fill="#333">13 木</text>
  <circle cx="80" cy="380" r="6" fill="#4a9eff"/>
  <circle cx="100" cy="380" r="6" fill="#4a9eff"/>
  <path d="M 98,380 L 100,382 L 103,377" stroke="white" fill="none" stroke-width="1.2"/>
  <text x="115" y="383" font-family="Arial, sans-serif" font-size="10" fill="#333">8:51</text>
  <text x="160" y="383" font-family="Arial, sans-serif" font-size="10" fill="#333">17:36</text>
  <text x="205" y="383" font-family="Arial, sans-serif" font-size="10" fill="#333">在宅</text>
  <text x="275" y="383" font-family="Arial, sans-serif" font-size="10" fill="#0070d2" text-decoration="underline">7:45</text>
  <!-- 8:51 = 8.85h, 17:36 = 17.6h -->
  <!-- 開始: 320 + 8.85*21.875 = 513.6, 終了: 320 + 17.6*21.875 = 705 -->
  <rect x="513.6" y="373" width="95.7" height="13" fill="#4a9eff" rx="1"/>
  <line x1="609.3" y1="373" x2="609.3" y2="386" stroke="white" stroke-width="1.5"/>
  <rect x="609.3" y="373" width="95.7" height="13" fill="#4a9eff" rx="1"/>
  <circle cx="1360" cy="380" r="5" fill="#ccc"/>
  
  <!-- 11/14 金: 8:52-18:01 (8h9m) -->
  <rect x="15" y="390" width="1370" height="20" fill="#e8f5ff" stroke="#e0e0e0" stroke-width="0.5"/>
  <circle cx="20" cy="400" r="4" fill="white" stroke="#ccc"/>
  <path d="M 18,400 L 20,402 L 23,397" stroke="#0096ff" fill="none" stroke-width="1.5"/>
  <text x="25" y="403" font-family="Arial, sans-serif" font-size="10" fill="#333">14 金</text>
  <circle cx="80" cy="400" r="6" fill="#4a9eff"/>
  <circle cx="100" cy="400" r="6" fill="#4a9eff"/>
  <path d="M 98,400 L 100,402 L 103,397" stroke="white" fill="none" stroke-width="1.2"/>
  <text x="115" y="403" font-family="Arial, sans-serif" font-size="10" fill="#333">8:52</text>
  <text x="160" y="403" font-family="Arial, sans-serif" font-size="10" fill="#333">18:01</text>
  <text x="205" y="403" font-family="Arial, sans-serif" font-size="10" fill="#333">在宅</text>
  <text x="275" y="403" font-family="Arial, sans-serif" font-size="10" fill="#0070d2" text-decoration="underline">8:09</text>
  <!-- 8:52 = 8.867h, 18:01 = 18.017h -->
  <!-- 開始: 320 + 8.867*21.875 = 514, 終了: 320 + 18.017*21.875 = 714.1 -->
  <rect x="514" y="393" width="100" height="13" fill="#4a9eff" rx="1"/>
  <line x1="614" y1="393" x2="614" y2="406" stroke="white" stroke-width="1.5"/>
  <rect x="614" y="393" width="100.1" height="13" fill="#4a9eff" rx="1"/>
  <circle cx="1360" cy="400" r="5" fill="#ccc"/>
  
  <!-- 11/15 土 -->
  <rect x="15" y="410" width="1370" height="20" fill="#ffe8d9" stroke="#e0e0e0" stroke-width="0.5"/>
  <circle cx="20" cy="420" r="4" fill="white" stroke="#ccc"/>
  <text x="25" y="423" font-family="Arial, sans-serif" font-size="10" fill="#333">15 土</text>
  
  <!-- 11/16 日 -->
  <rect x="15" y="430" width="1370" height="20" fill="#ffe8d9" stroke="#e0e0e0" stroke-width="0.5"/>
  <circle cx="20" cy="440" r="4" fill="white" stroke="#ccc"/>
  <text x="25" y="443" font-family="Arial, sans-serif" font-size="10" fill="#333">16 日</text>
  
  <!-- 11/17 月: 8:42-17:32 (7h50m) -->
  <rect x="15" y="450" width="1370" height="20" fill="#e8f5ff" stroke="#e0e0e0" stroke-width="0.5"/>
  <circle cx="20" cy="460" r="4" fill="white" stroke="#ccc"/>
  <path d="M 18,460 L 20,462 L 23,457" stroke="#0096ff" fill="none" stroke-width="1.5"/>
  <text x="25" y="463" font-family="Arial, sans-serif" font-size="10" fill="#333">17 月</text>
  <circle cx="80" cy="460" r="6" fill="#4a9eff"/>
  <circle cx="100" cy="460" r="6" fill="#4a9eff"/>
  <path d="M 98,460 L 100,462 L 103,457" stroke="white" fill="none" stroke-width="1.2"/>
  <text x="115" y="463" font-family="Arial, sans-serif" font-size="10" fill="#333">8:42</text>
  <text x="160" y="463" font-family="Arial, sans-serif" font-size="10" fill="#333">17:32</text>
  <text x="205" y="463" font-family="Arial, sans-serif" font-size="10" fill="#333">在宅</text>
  <text x="275" y="463" font-family="Arial, sans-serif" font-size="10" fill="#0070d2" text-decoration="underline">7:50</text>
  <!-- 8:42 = 8.7h, 17:32 = 17.533h -->
  <!-- 開始: 320 + 8.7*21.875 = 510.3, 終了: 320 + 17.533*21.875 = 703.5 -->
  <rect x="510.3" y="453" width="96.6" height="13" fill="#4a9eff" rx="1"/>
  <line x1="606.9" y1="453" x2="606.9" y2="466" stroke="white" stroke-width="1.5"/>
  <rect x="606.9" y="453" width="96.6" height="13" fill="#4a9eff" rx="1"/>
  <circle cx="1360" cy="460" r="5" fill="#ccc"/>
  
  <!-- 11/18 火: 8:49-17:41 (7h52m) -->
  <rect x="15" y="470" width="1370" height="20" fill="#e8f5ff" stroke="#e0e0e0" stroke-width="0.5"/>
  <circle cx="20" cy="480" r="4" fill="white" stroke="#ccc"/>
  <path d="M 18,480 L 20,482 L 23,477" stroke="#0096ff" fill="none" stroke-width="1.5"/>
  <text x="25" y="483" font-family="Arial, sans-serif" font-size="10" fill="#333">18 火</text>
  <circle cx="80" cy="480" r="6" fill="#4a9eff"/>
  <circle cx="100" cy="480" r="6" fill="#4a9eff"/>
  <path d="M 98,480 L 100,482 L 103,477" stroke="white" fill="none" stroke-width="1.2"/>
  <text x="115" y="483" font-family="Arial, sans-serif" font-size="10" fill="#333">8:49</text>
  <text x="160" y="483" font-family="Arial, sans-serif" font-size="10" fill="#333">17:41</text>
  <text x="205" y="483" font-family="Arial, sans-serif" font-size="10" fill="#333">在宅</text>
  <text x="275" y="483" font-family="Arial, sans-serif" font-size="10" fill="#0070d2" text-decoration="underline">7:52</text>
  <!-- 8:49 = 8.817h, 17:41 = 17.683h -->
  <!-- 開始: 320 + 8.817*21.875 = 512.9, 終了: 320 + 17.683*21.875 = 706.8 -->
  <rect x="512.9" y="473" width="97" height="13" fill="#4a9eff" rx="1"/>
  <line x1="609.9" y1="473" x2="609.9" y2="486" stroke="white" stroke-width="1.5"/>
  <rect x="609.9" y="473" width="96.9" height="13" fill="#4a9eff" rx="1"/>
  <circle cx="1360" cy="480" r="5" fill="#ccc"/>
  
  <!-- 11/19 水: 8:51-18:02 (8h11m) -->
  <rect x="15" y="490" width="1370" height="20" fill="#e8f5ff" stroke="#e0e0e0" stroke-width="0.5"/>
  <circle cx="20" cy="500" r="4" fill="white" stroke="#ccc"/>
  <path d="M 18,500 L 20,502 L 23,497" stroke="#0096ff" fill="none" stroke-width="1.5"/>
  <text x="25" y="503" font-family="Arial, sans-serif" font-size="10" fill="#333">19 水</text>
  <circle cx="80" cy="500" r="6" fill="#4a9eff"/>
  <circle cx="100" cy="500" r="6" fill="#4a9eff"/>
  <path d="M 98,500 L 100,502 L 103,497" stroke="white" fill="none" stroke-width="1.2"/>
  <text x="115" y="503" font-family="Arial, sans-serif" font-size="10" fill="#333">8:51</text>
  <text x="160" y="503" font-family="Arial, sans-serif" font-size="10" fill="#333">18:02</text>
  <text x="205" y="503" font-family="Arial, sans-serif" font-size="10" fill="#333">渋谷</text>
  <text x="275" y="503" font-family="Arial, sans-serif" font-size="10" fill="#0070d2" text-decoration="underline">8:11</text>
  <!-- 8:51 = 8.85h, 18:02 = 18.033h -->
  <!-- 開始: 320 + 8.85*21.875 = 513.6, 終了: 320 + 18.033*21.875 = 714.5 -->
  <rect x="513.6" y="493" width="100.5" height="13" fill="#4a9eff" rx="1"/>
  <line x1="614.1" y1="493" x2="614.1" y2="506" stroke="white" stroke-width="1.5"/>
  <rect x="614.1" y="493" width="100.4" height="13" fill="#4a9eff" rx="1"/>
  <circle cx="1360" cy="500" r="5" fill="#ccc"/>
  
  <!-- 11/20 木: 8:49-17:49 (8h) -->
  <rect x="15" y="510" width="1370" height="20" fill="#e8f5ff" stroke="#e0e0e0" stroke-width="0.5"/>
  <circle cx="20" cy="520" r="4" fill="white" stroke="#ccc"/>
  <path d="M 18,520 L 20,522 L 23,517" stroke="#0096ff" fill="none" stroke-width="1.5"/>
  <text x="25" y="523" font-family="Arial, sans-serif" font-size="10" fill="#333">20 木</text>
  <circle cx="80" cy="520" r="6" fill="#4a9eff"/>
  <circle cx="100" cy="520" r="6" fill="#4a9eff"/>
  <path d="M 98,520 L 100,522 L 103,517" stroke="white" fill="none" stroke-width="1.2"/>
  <text x="115" y="523" font-family="Arial, sans-serif" font-size="10" fill="#333">8:49</text>
  <text x="160" y="523" font-family="Arial, sans-serif" font-size="10" fill="#333">17:49</text>
  <text x="205" y="523" font-family="Arial, sans-serif" font-size="10" fill="#333">在宅</text>
  <text x="275" y="523" font-family="Arial, sans-serif" font-size="10" fill="#0070d2" text-decoration="underline">8:00</text>
  <!-- 8:49 = 8.817h, 17:49 = 17.817h -->
  <!-- 開始: 320 + 8.817*21.875 = 512.9, 終了: 320 + 17.817*21.875 = 709.9 -->
  <rect x="512.9" y="513" width="98.5" height="13" fill="#4a9eff" rx="1"/>
  <line x1="611.4" y1="513" x2="611.4" y2="526" stroke="white" stroke-width="1.5"/>
  <rect x="611.4" y="513" width="98.5" height="13" fill="#4a9eff" rx="1"/>
  <circle cx="1360" cy="520" r="5" fill="#ccc"/>
  
  <!-- 11/21 金: 8:46-18:00 (8h14m) -->
  <rect x="15" y="530" width="1370" height="20" fill="#e8f5ff" stroke="#e0e0e0" stroke-width="0.5"/>
  <circle cx="20" cy="540" r="4" fill="white" stroke="#ccc"/>
  <circle cx="20" cy="540" r="5" fill="none" stroke="#ffaa00" stroke-width="1.5"/>
  <text x="25" y="543" font-family="Arial, sans-serif" font-size="10" fill="#333">21 金</text>
  <circle cx="80" cy="540" r="6" fill="#4a9eff"/>
  <circle cx="100" cy="540" r="6" fill="#4a9eff"/>
  <circle cx="100" cy="540" r="7" fill="none" stroke="#ffaa00" stroke-width="1.5"/>
  <text x="115" y="543" font-family="Arial, sans-serif" font-size="10" fill="#333">8:46</text>
  <text x="160" y="543" font-family="Arial, sans-serif" font-size="10" fill="#333">18:00</text>
  <text x="205" y="543" font-family="Arial, sans-serif" font-size="10" fill="#333">在宅</text>
  <text x="275" y="543" font-family="Arial, sans-serif" font-size="10" fill="#0070d2" text-decoration="underline">8:14</text>
  <!-- 8:46 = 8.767h, 18:00 = 18h -->
  <!-- 開始: 320 + 8.767*21.875 = 511.8, 終了: 320 + 18*21.875 = 713.75 -->
  <rect x="511.8" y="533" width="101" height="13" fill="#4a9eff" rx="1"/>
  <line x1="612.8" y1="533" x2="612.8" y2="546" stroke="white" stroke-width="1.5"/>
  <rect x="612.8" y="533" width="100.95" height="13" fill="#4a9eff" rx="1"/>
  <text x="1240" y="543" font-family="Arial, sans-serif" font-size="9" fill="#666">遅刻打刻忘れ</text>
  <circle cx="1360" cy="540" r="5" fill="#ccc"/>
  
  <!-- 11/22 土 -->
  <rect x="15" y="550" width="1370" height="20" fill="#ffe8d9" stroke="#e0e0e0" stroke-width="0.5"/>
  <circle cx="20" cy="560" r="4" fill="white" stroke="#ccc"/>
  <text x="25" y="563" font-family="Arial, sans-serif" font-size="10" fill="#333">22 土</text>
  
  <!-- 11/23 日 -->
  <rect x="15" y="570" width="1370" height="20" fill="#ffe8d9" stroke="#e0e0e0" stroke-width="0.5"/>
  <circle cx="20" cy="580" r="4" fill="white" stroke="#ccc"/>
  <text x="25" y="583" font-family="Arial, sans-serif" font-size="10" fill="#333">23 日</text>
  
  <!-- 11/24 月 -->
  <rect x="15" y="590" width="1370" height="20" fill="#ffe8d9" stroke="#e0e0e0" stroke-width="0.5"/>
  <circle cx="20" cy="600" r="4" fill="white" stroke="#ccc"/>
  <text x="25" y="603" font-family="Arial, sans-serif" font-size="10" fill="#333">24 月</text>
  
  <!-- 11/25 火 - 未入力 -->
  <rect x="15" y="610" width="1370" height="20" fill="#fff" stroke="#e0e0e0" stroke-width="0.5"/>
  <circle cx="20" cy="620" r="4" fill="white" stroke="#ccc"/>
  <text x="25" y="623" font-family="Arial, sans-serif" font-size="10" fill="#333">25 火</text>
  <circle cx="20" cy="620" r="5" fill="none" stroke="#ccc" stroke-width="1"/>
  <text x="115" y="623" font-family="Arial, sans-serif" font-size="10" fill="#333">8:44</text>
  <text x="205" y="623" font-family="Arial, sans-serif" font-size="10" fill="#333">在宅</text>
  <polygon points="505,617 512,620 505,623" fill="#4a9eff"/>
  <!-- 8:44 = 8.733h, 現在進行中（約12時まで表示） -->
  <!-- 開始: 320 + 8.733*21.875 = 511.1, 12時まで: 320 + 12*21.875 = 582.5 -->
  <rect x="511.1" y="613" width="71.4" height="13" fill="#4a9eff" rx="1"/>
  <rect x="582.5" y="613" width="175" height="13" fill="#d0d0d0" rx="1"/>
  <circle cx="1360" cy="620" r="5" fill="#ccc"/>
  
  <!-- 11/26 水 - 未入力 -->
  <rect x="15" y="630" width="1370" height="20" fill="#fff" stroke="#e0e0e0" stroke-width="0.5"/>
  <circle cx="20" cy="640" r="4" fill="white" stroke="#ccc"/>
  <text x="25" y="643" font-family="Arial, sans-serif" font-size="10" fill="#333">26 水</text>
  <circle cx="20" cy="640" r="5" fill="none" stroke="#ccc" stroke-width="1"/>
  <!-- 標準9-18時を想定 (9h = 196.875px) -->
  <!-- 開始: 320 + 9*21.875 = 516.875, 終了: 320 + 18*21.875 = 713.75 -->
  <rect x="516.9" y="633" width="196.9" height="13" fill="#d0d0d0" rx="1"/>
  <circle cx="1360" cy="640" r="5" fill="#ccc"/>
  
  <!-- 11/27 木 - 未入力 -->
  <rect x="15" y="650" width="1370" height="20" fill="#fff" stroke="#e0e0e0" stroke-width="0.5"/>
  <circle cx="20" cy="660" r="4" fill="white" stroke="#ccc"/>
  <text x="25" y="663" font-family="Arial, sans-serif" font-size="10" fill="#333">27 木</text>
  <circle cx="20" cy="660" r="5" fill="none" stroke="#ccc" stroke-width="1"/>
  <!-- 標準9-18時を想定 -->
  <rect x="516.9" y="653" width="196.9" height="13" fill="#d0d0d0" rx="1"/>
  <circle cx="1360" cy="660" r="5" fill="#ccc"/>
  
  <!-- 11/28 金 - 未入力 -->
  <rect x="15" y="670" width="1370" height="20" fill="#fff" stroke="#e0e0e0" stroke-width="0.5"/>
  <circle cx="20" cy="680" r="4" fill="white" stroke="#ccc"/>
  <text x="25" y="683" font-family="Arial, sans-serif" font-size="10" fill="#333">28 金</text>
  <circle cx="20" cy="680" r="5" fill="none" stroke="#ccc" stroke-width="1"/>
  <!-- 標準9-18時を想定 -->
  <rect x="516.9" y="673" width="196.9" height="13" fill="#d0d0d0" rx="1"/>
  <circle cx="1360" cy="680" r="5" fill="#ccc"/>
  
  <!-- 11/29 土 -->
  <rect x="15" y="690" width="1370" height="20" fill="#ffe8d9" stroke="#e0e0e0" stroke-width="0.5"/>
  <circle cx="20" cy="700" r="4" fill="white" stroke="#ccc"/>
  <text x="25" y="703" font-family="Arial, sans-serif" font-size="10" fill="#333">29 土</text>
  
  <!-- 11/30 日 -->
  <rect x="15" y="710" width="1370" height="20" fill="#ffe8d9" stroke="#e0e0e0" stroke-width="0.5"/>
  <circle cx="20" cy="720" r="4" fill="white" stroke="#ccc"/>
  <text x="25" y="723" font-family="Arial, sans-serif" font-size="10" fill="#333">30 日</text>
  
  <!-- 時間軸の下部 -->
  <rect x="15" y="745" width="1370" height="15" fill="#f9f9f9"/>
  <text x="320" y="756" font-family="Arial, sans-serif" font-size="8" fill="#666">0 1 2 3 4 5 6 7 8 9 10 11 12 13 14 15 16 17 18 19 20 21 22 23 24 25 26 27 28 29 30 31 32 33 34 35 36 37 38 39 40 41 42 43 44 45 46 47 48</text>
  
  <!-- 統計情報エリア -->
  <rect x="15" y="770" width="1370" height="125" fill="#e8f4ff"/>
  
  <!-- 左側統計 -->
  <text x="25" y="790" font-family="Arial, sans-serif" font-size="11" fill="#0070d2" text-decoration="underline">所定出勤日数</text>
  <text x="200" y="790" font-family="Arial, sans-serif" font-size="11" fill="#333" font-weight="bold">18 日</text>
  
  <text x="25" y="815" font-family="Arial, sans-serif" font-size="11" fill="#0070d2" text-decoration="underline">実出勤日数</text>
  <text x="200" y="815" font-family="Arial, sans-serif" font-size="11" fill="#333" font-weight="bold">14 日</text>
  
  <text x="25" y="840" font-family="Arial, sans-serif" font-size="11" fill="#0070d2" text-decoration="underline">所定勤務時間</text>
  <text x="200" y="840" font-family="Arial, sans-serif" font-size="11" fill="#333" font-weight="bold">135:00</text>
  
  <text x="25" y="865" font-family="Arial, sans-serif" font-size="11" fill="#0070d2" text-decoration="underline">総労働時間</text>
  <text x="200" y="865" font-family="Arial, sans-serif" font-size="11" fill="#333" font-weight="bold">114:05</text>
  
  <!-- 中央統計 -->
  <text x="270" y="790" font-family="Arial, sans-serif" font-size="11" fill="#0070d2" text-decoration="underline">過不足時間(11/24まで)</text>
  <text x="470" y="790" font-family="Arial, sans-serif" font-size="11" fill="#333" font-weight="bold">+9:05</text>
  
  <text x="270" y="815" font-family="Arial, sans-serif" font-size="11" fill="#0070d2" text-decoration="underline">法定休日勤務</text>
  <text x="470" y="815" font-family="Arial, sans-serif" font-size="11" fill="#333" font-weight="bold">0:00</text>
  
  <text x="270" y="840" font-family="Arial, sans-serif" font-size="11" fill="#0070d2" text-decoration="underline">法定外休日勤務</text>
  <text x="470" y="840" font-family="Arial, sans-serif" font-size="11" fill="#333" font-weight="bold">0:00</text>
  
  <text x="270" y="865" font-family="Arial, sans-serif" font-size="11" fill="#0070d2" text-decoration="underline">法定外時間外残業</text>
  <text x="470" y="865" font-family="Arial, sans-serif" font-size="11" fill="#333" font-weight="bold">0:00</text>
  
  <!-- 右側ボタン -->
  <text x="1150" y="790" font-family="Arial, sans-serif" font-size="11" fill="#0070d2" text-decoration="underline">全照会</text>
  <text x="1220" y="790" font-family="Arial, sans-serif" font-size="11" fill="#0070d2" text-decoration="underline">月次サマリー</text>
  
  <rect x="1310" y="820" width="65" height="25" rx="3" fill="#0096ff"/>
  <text x="1342" y="837" font-family="Arial, sans-serif" font-size="11" fill="white" font-weight="bold" text-anchor="middle">承認申請</text>
</svg>

