<svg width="1400" height="550" xmlns="http://www.w3.org/2000/svg">
  <!-- 背景 -->
  <rect width="1400" height="550" fill="white"/>
  
  <!-- カレンダー枠 -->
  <rect x="10" y="10" width="1380" height="530" rx="5" fill="white" stroke="#ddd" stroke-width="1"/>
  
  <!-- 月選択 -->
  <rect x="20" y="20" width="100" height="25" fill="white" stroke="#999"/>
  <text x="70" y="38" font-family="Arial, sans-serif" font-size="12" fill="#333" text-anchor="middle">2025年11月</text>
  <polygon points="105,33 110,28 110,38" fill="#333"/>
  
  <text x="135" y="38" font-family="Arial, sans-serif" font-size="12" fill="#0070d2" text-decoration="underline">&lt;&lt;前月</text>
  <text x="210" y="38" font-family="Arial, sans-serif" font-size="12" fill="#0070d2" text-decoration="underline">今月</text>
  <text x="260" y="38" font-family="Arial, sans-serif" font-size="12" fill="#0070d2" text-decoration="underline">次月&gt;&gt;</text>
  
  <!-- 備考 -->
  <text x="1350" y="38" font-family="Arial, sans-serif" font-size="11" fill="#666" text-anchor="end">備考</text>
  
  <!-- カレンダーヘッダー -->
  <rect x="20" y="55" width="1360" height="30" fill="#e8f4ff"/>
  <text x="40" y="73" font-family="Arial, sans-serif" font-size="11" fill="#333">日付</text>
  <text x="100" y="73" font-family="Arial, sans-serif" font-size="11" fill="#333">勤務パターン</text>
  <text x="170" y="73" font-family="Arial, sans-serif" font-size="11" fill="#333">出社</text>
  <text x="220" y="73" font-family="Arial, sans-serif" font-size="11" fill="#333">退社</text>
  <text x="270" y="73" font-family="Arial, sans-serif" font-size="11" fill="#333">遅刻</text>
  <text x="320" y="73" font-family="Arial, sans-serif" font-size="11" fill="#333">勤務場所</text>
  <text x="390" y="73" font-family="Arial, sans-serif" font-size="11" fill="#333">工数</text>
  <text x="440" y="73" font-family="Arial, sans-serif" font-size="10" fill="#333">0 1 2 3 4 5 6 7 8 9 10 11 12 13 14 15 16 17 18 19 20 21 22 23 24 25 26 27 28 29 30 31 32 33 34 35 36 37 38 39 40 41 42 43 44 45 46 47 48</text>
  
  <!-- カレンダー行 -->
  <!-- 11/1 -->
  <rect x="20" y="85" width="1360" height="25" fill="#fff"/>
  <text x="30" y="102" font-family="Arial, sans-serif" font-size="11" fill="#333">11/1 金</text>
  
  <!-- 11/2 土 -->
  <rect x="20" y="110" width="1360" height="25" fill="#ffe8d9"/>
  <text x="30" y="127" font-family="Arial, sans-serif" font-size="11" fill="#333">2 土</text>
  
  <!-- 11/3 日 -->
  <rect x="20" y="135" width="1360" height="25" fill="#ffe8d9"/>
  <text x="30" y="152" font-family="Arial, sans-serif" font-size="11" fill="#333">3 日</text>
  
  <!-- 11/4 火 -->
  <rect x="20" y="160" width="1360" height="25" fill="#e8f5ff"/>
  <circle cx="25" cy="172" r="6" fill="#4a9eff"/>
  <text x="30" y="177" font-family="Arial, sans-serif" font-size="11" fill="#333">4 火</text>
  <circle cx="100" cy="172" r="8" fill="#4a9eff"/>
  <text x="170" y="177" font-family="Arial, sans-serif" font-size="11" fill="#333">8:48</text>
  <text x="220" y="177" font-family="Arial, sans-serif" font-size="11" fill="#333">17:48</text>
  <text x="270" y="177" font-family="Arial, sans-serif" font-size="11" fill="#333">在宅</text>
  <text x="390" y="177" font-family="Arial, sans-serif" font-size="11" fill="#0070d2">8:00</text>
  <rect x="510" y="165" width="220" height="15" fill="#4a9eff" rx="2"/>
  
  <!-- 11/5 水 -->
  <rect x="20" y="185" width="1360" height="25" fill="#e8f5ff"/>
  <circle cx="25" cy="197" r="6" fill="#4a9eff"/>
  <text x="30" y="202" font-family="Arial, sans-serif" font-size="11" fill="#333">5 水</text>
  <circle cx="100" cy="197" r="8" fill="#4a9eff"/>
  <text x="170" y="202" font-family="Arial, sans-serif" font-size="11" fill="#333">8:50</text>
  <text x="220" y="202" font-family="Arial, sans-serif" font-size="11" fill="#333">19:03</text>
  <text x="270" y="202" font-family="Arial, sans-serif" font-size="11" fill="#333">渋谷</text>
  <text x="390" y="202" font-family="Arial, sans-serif" font-size="11" fill="#0070d2">9:13</text>
  <rect x="514" y="190" width="240" height="15" fill="#4a9eff" rx="2"/>
  
  <!-- 11/6 木 -->
  <rect x="20" y="210" width="1360" height="25" fill="#e8f5ff"/>
  <circle cx="25" cy="222" r="6" fill="#4a9eff"/>
  <text x="30" y="227" font-family="Arial, sans-serif" font-size="11" fill="#333">6 木</text>
  <circle cx="100" cy="222" r="8" fill="#4a9eff"/>
  <text x="170" y="227" font-family="Arial, sans-serif" font-size="11" fill="#333">8:47</text>
  <text x="220" y="227" font-family="Arial, sans-serif" font-size="11" fill="#333">17:52</text>
  <text x="270" y="227" font-family="Arial, sans-serif" font-size="11" fill="#333">在宅</text>
  <text x="390" y="227" font-family="Arial, sans-serif" font-size="11" fill="#0070d2">8:05</text>
  <rect x="510" y="215" width="220" height="15" fill="#4a9eff" rx="2"/>
  
  <!-- 11/7 金 -->
  <rect x="20" y="235" width="1360" height="25" fill="#e8f5ff"/>
  <circle cx="25" cy="247" r="6" fill="#4a9eff"/>
  <text x="30" y="252" font-family="Arial, sans-serif" font-size="11" fill="#333">7 金</text>
  <circle cx="100" cy="247" r="8" fill="#4a9eff"/>
  <text x="170" y="252" font-family="Arial, sans-serif" font-size="11" fill="#333">8:46</text>
  <text x="220" y="252" font-family="Arial, sans-serif" font-size="11" fill="#333">17:47</text>
  <text x="270" y="252" font-family="Arial, sans-serif" font-size="11" fill="#333">在宅</text>
  <text x="390" y="252" font-family="Arial, sans-serif" font-size="11" fill="#0070d2">8:01</text>
  <rect x="510" y="240" width="215" height="15" fill="#4a9eff" rx="2"/>
  
  <!-- 11/8 土 -->
  <rect x="20" y="260" width="1360" height="25" fill="#ffe8d9"/>
  <text x="30" y="277" font-family="Arial, sans-serif" font-size="11" fill="#333">8 土</text>
  
  <!-- 11/9 日 -->
  <rect x="20" y="285" width="1360" height="25" fill="#ffe8d9"/>
  <text x="30" y="302" font-family="Arial, sans-serif" font-size="11" fill="#333">9 日</text>
  
  <!-- 11/10 月 -->
  <rect x="20" y="310" width="1360" height="25" fill="#e8f5ff"/>
  <circle cx="25" cy="322" r="6" fill="#4a9eff"/>
  <text x="30" y="327" font-family="Arial, sans-serif" font-size="11" fill="#333">10 月</text>
  <circle cx="100" cy="322" r="8" fill="#4a9eff"/>
  <text x="170" y="327" font-family="Arial, sans-serif" font-size="11" fill="#333">8:46</text>
  <text x="220" y="327" font-family="Arial, sans-serif" font-size="11" fill="#333">17:31</text>
  <text x="270" y="327" font-family="Arial, sans-serif" font-size="11" fill="#333">在宅</text>
  <text x="390" y="327" font-family="Arial, sans-serif" font-size="11" fill="#0070d2">7:45</text>
  <rect x="510" y="315" width="210" height="15" fill="#4a9eff" rx="2"/>
  
  <!-- 11/11 火 -->
  <rect x="20" y="335" width="1360" height="25" fill="#e8f5ff"/>
  <circle cx="25" cy="347" r="6" fill="#4a9eff"/>
  <text x="30" y="352" font-family="Arial, sans-serif" font-size="11" fill="#333">11 火</text>
  <circle cx="100" cy="347" r="8" fill="#4a9eff"/>
  <text x="170" y="352" font-family="Arial, sans-serif" font-size="11" fill="#333">8:50</text>
  <text x="220" y="352" font-family="Arial, sans-serif" font-size="11" fill="#333">17:40</text>
  <text x="270" y="352" font-family="Arial, sans-serif" font-size="11" fill="#333">在宅</text>
  <text x="390" y="352" font-family="Arial, sans-serif" font-size="11" fill="#0070d2">7:50</text>
  <rect x="514" y="340" width="212" height="15" fill="#4a9eff" rx="2"/>
  
  <!-- 11/12 水 -->
  <rect x="20" y="360" width="1360" height="25" fill="#e8f5ff"/>
  <circle cx="25" cy="372" r="6" fill="#4a9eff"/>
  <text x="30" y="377" font-family="Arial, sans-serif" font-size="11" fill="#333">12 水</text>
  <circle cx="100" cy="372" r="8" fill="#4a9eff"/>
  <text x="170" y="377" font-family="Arial, sans-serif" font-size="11" fill="#333">8:42</text>
  <text x="220" y="377" font-family="Arial, sans-serif" font-size="11" fill="#333">18:52</text>
  <text x="270" y="377" font-family="Arial, sans-serif" font-size="11" fill="#333">渋谷</text>
  <text x="390" y="377" font-family="Arial, sans-serif" font-size="11" fill="#0070d2">9:10</text>
  <rect x="506" y="365" width="236" height="15" fill="#4a9eff" rx="2"/>
  
  <!-- 11/13 木 -->
  <rect x="20" y="385" width="1360" height="25" fill="#e8f5ff"/>
  <circle cx="25" cy="397" r="6" fill="#4a9eff"/>
  <text x="30" y="402" font-family="Arial, sans-serif" font-size="11" fill="#333">13 木</text>
  <circle cx="100" cy="397" r="8" fill="#4a9eff"/>
  <text x="170" y="402" font-family="Arial, sans-serif" font-size="11" fill="#333">8:51</text>
  <text x="220" y="402" font-family="Arial, sans-serif" font-size="11" fill="#333">17:36</text>
  <text x="270" y="402" font-family="Arial, sans-serif" font-size="11" fill="#333">在宅</text>
  <text x="390" y="402" font-family="Arial, sans-serif" font-size="11" fill="#0070d2">7:45</text>
  <rect x="515" y="390" width="210" height="15" fill="#4a9eff" rx="2"/>
  
  <!-- 11/14 金 -->
  <rect x="20" y="410" width="1360" height="25" fill="#e8f5ff"/>
  <circle cx="25" cy="422" r="6" fill="#4a9eff"/>
  <text x="30" y="427" font-family="Arial, sans-serif" font-size="11" fill="#333">14 金</text>
  <circle cx="100" cy="422" r="8" fill="#4a9eff"/>
  <text x="170" y="427" font-family="Arial, sans-serif" font-size="11" fill="#333">8:52</text>
  <text x="220" y="427" font-family="Arial, sans-serif" font-size="11" fill="#333">18:01</text>
  <text x="270" y="427" font-family="Arial, sans-serif" font-size="11" fill="#333">在宅</text>
  <text x="390" y="427" font-family="Arial, sans-serif" font-size="11" fill="#0070d2">8:09</text>
  <rect x="516" y="415" width="226" height="15" fill="#4a9eff" rx="2"/>
  
  <!-- 11/15 土 -->
  <rect x="20" y="435" width="1360" height="25" fill="#ffe8d9"/>
  <text x="30" y="452" font-family="Arial, sans-serif" font-size="11" fill="#333">15 土</text>
  
  <!-- 11/16 日 -->
  <rect x="20" y="460" width="1360" height="25" fill="#ffe8d9"/>
  <text x="30" y="477" font-family="Arial, sans-serif" font-size="11" fill="#333">16 日</text>
  
  <!-- 画面下部の統計情報 -->
  <rect x="20" y="500" width="1360" height="30" fill="#f9f9f9"/>
  <text x="30" y="518" font-family="Arial, sans-serif" font-size="11" fill="#333">所定出勤日数</text>
  <text x="200" y="518" font-family="Arial, sans-serif" font-size="11" fill="#333">18 日</text>
  
  <text x="250" y="518" font-family="Arial, sans-serif" font-size="11" fill="#333">実出勤日数</text>
  <text x="400" y="518" font-family="Arial, sans-serif" font-size="11" fill="#333">14 日</text>
  
  <text x="450" y="518" font-family="Arial, sans-serif" font-size="11" fill="#333">所定勤務時間</text>
  <text x="630" y="518" font-family="Arial, sans-serif" font-size="11" fill="#333">135:00</text>
  
  <text x="700" y="518" font-family="Arial, sans-serif" font-size="11" fill="#6ba5d2">過不足時間(11/24まで)</text>
  <text x="960" y="518" font-family="Arial, sans-serif" font-size="11" fill="#333">+9:05</text>
  
  <text x="1030" y="518" font-family="Arial, sans-serif" font-size="11" fill="#333">総労働時間</text>
  <text x="1180" y="518" font-family="Arial, sans-serif" font-size="11" fill="#333">114:05</text>
  
  <text x="1250" y="518" font-family="Arial, sans-serif" font-size="11" fill="#6ba5d2">法定内残業</text>
  <text x="1370" y="518" font-family="Arial, sans-serif" font-size="11" fill="#333" text-anchor="end">0:00</text>
</svg>

